<svg width="192" height="25" viewBox="0 0 192 25" fill="none" xmlns="http://www.w3.org/2000/svg">
<path d="M59.1948 19.8291V1.60571H55.2348V9.00621H46.7116V1.60571H42.7515V19.8291H46.7116V12.1508H55.2348V19.8291H59.1948Z" fill="#1A1A1A"/>
<path d="M74.9957 6.29102H71.1665V14.0451C71.1665 15.8384 70.1044 17.0129 68.3997 17.0129C66.7084 17.0129 65.7771 16.0531 65.7771 14.2472V6.29102H61.9482V15.0175C61.9482 18.1748 63.9676 20.0817 67.0096 20.0817C69.1341 20.0817 70.5242 19.0967 71.2188 17.3917H71.2976V19.8291H74.9957V6.29102Z" fill="#1A1A1A"/>
<path d="M83.9775 16.9496C82.0763 16.9496 80.8962 15.5099 80.8962 13.0347C80.8962 10.572 82.0893 9.0313 83.9775 9.0313C85.8922 9.0313 87.1118 10.5973 87.1118 13.0347C87.1118 15.4847 85.8922 16.9496 83.9775 16.9496ZM83.9122 24.931C88.1214 24.931 90.9276 22.8725 90.9276 19.6395V6.29087H87.1511V8.65246H87.0854C86.3509 7.0991 84.7643 6.07617 82.745 6.07617C79.1784 6.07617 76.9756 8.71561 76.9756 13.0094C76.9756 17.2401 79.2438 19.7911 82.6796 19.7911C84.712 19.7911 86.3643 18.806 87.02 17.3663H87.0983V19.7406C87.0983 21.3066 85.9969 22.3674 84.0169 22.3674C82.5615 22.3674 81.4601 21.7233 81.1584 20.7888H77.4084C77.7096 23.2009 80.2145 24.931 83.9122 24.931Z" fill="#1A1A1A"/>
<path d="M99.8839 20.1195C104.133 20.1195 106.847 17.5054 106.847 13.0474C106.847 8.65256 104.093 6.00049 99.8839 6.00049C95.6747 6.00049 92.9209 8.66519 92.9209 13.0474C92.9209 17.4927 95.6353 20.1195 99.8839 20.1195ZM99.8839 17.3033C97.9957 17.3033 96.8025 15.7752 96.8025 13.06C96.8025 10.3701 98.0217 8.81669 99.8839 8.81669C101.746 8.81669 102.952 10.3701 102.952 13.06C102.952 15.7752 101.759 17.3033 99.8839 17.3033Z" fill="#1A1A1A"/>
<path d="M125.598 19.8291V1.60571H121.638V9.00621H113.115V1.60571H109.155V19.8291H113.115V12.1508H121.638V19.8291H125.598Z" fill="#1A1A1A"/>
<path d="M141.399 6.29102H137.57V14.0451C137.57 15.8384 136.508 17.0129 134.803 17.0129C133.111 17.0129 132.18 16.0531 132.18 14.2472V6.29102H128.352V15.0175C128.352 18.1748 130.371 20.0817 133.413 20.0817C135.537 20.0817 136.927 19.0967 137.622 17.3917H137.701V19.8291H141.399V6.29102Z" fill="#1A1A1A"/>
<path d="M143.891 19.829H147.719V12.0623C147.719 10.3069 148.808 9.09449 150.526 9.09449C152.244 9.09449 153.109 10.1048 153.109 11.8729V19.829H156.938V11.1025C156.938 7.93264 155.181 6.03833 152.06 6.03833C149.896 6.03833 148.414 7.02337 147.667 8.70303H147.588V6.29092H143.891V19.829Z" fill="#1A1A1A"/>
<path d="M160.386 3.17163V6.29098H158.406V9.06929H160.386V16.1793C160.386 18.8188 161.671 19.8796 164.975 19.8796C165.749 19.8796 166.404 19.8164 166.798 19.728V17.0129C166.562 17.0507 166.208 17.076 165.867 17.076C164.739 17.076 164.215 16.5835 164.215 15.5479V9.06929H166.811V6.29098H164.215V3.17163H160.386Z" fill="#1A1A1A"/>
<path d="M175.007 8.72833C176.712 8.72833 177.879 9.91544 177.958 11.6456H171.991C172.122 9.95329 173.329 8.72833 175.007 8.72833ZM178.01 15.6868C177.656 16.7224 176.581 17.3917 175.177 17.3917C173.224 17.3917 171.952 16.0657 171.952 14.1335V13.9061H181.642V12.7822C181.642 8.66519 179.059 6.00049 174.968 6.00049C170.811 6.00049 168.188 8.80407 168.188 13.1232C168.188 17.4548 170.785 20.1195 175.112 20.1195C178.587 20.1195 181.105 18.3388 181.524 15.6868H178.01Z" fill="#1A1A1A"/>
<path d="M183.622 19.829H187.451V12.2643C187.451 10.3573 188.552 9.246 190.441 9.246C190.991 9.246 191.516 9.3344 191.831 9.4607V6.21509C191.568 6.13932 191.188 6.07617 190.742 6.07617C189.09 6.07617 187.897 7.0107 187.399 8.72824H187.32V6.29087H183.622V19.829Z" fill="#1A1A1A"/>
<path d="M0.0520557 12.344L2.1289 16.5055C2.19436 16.6823 2.71144 16.6818 2.7579 16.5055C5.01581 12.7025 9.54504 5.19944 9.77728 4.8628C10.0095 4.52616 10.2289 4.41082 10.3095 4.39522H15.0995C15.2124 4.37966 15.4769 4.36716 15.6318 4.44198C15.7866 4.51681 15.793 4.59785 15.7769 4.62901C14.8254 6.10966 12.9029 9.10841 12.8255 9.25802C12.7481 9.40763 12.8577 9.50741 12.9223 9.53858C14.3093 9.52297 17.1994 9.48246 17.6639 9.44504C18.1284 9.40763 18.5671 8.8372 18.7284 8.55664C19.8412 6.7175 22.0959 2.96444 22.212 2.66519C22.3281 2.36594 22.3572 1.93265 22.3088 1.87031C22.2281 1.66769 21.9895 1.14089 21.6798 0.654608C21.3701 0.168328 20.9379 0.0155859 20.7605 0H7.84192C6.99037 0 6.64844 0.34289 6.58394 0.514336C4.4873 3.95882 0.25527 10.9319 0.10044 11.2686C-0.0543893 11.6053 0.00367159 12.1258 0.0520557 12.344Z" fill="#CF1C31"/>
<path d="M27.698 10.9335L25.6212 6.77208C25.5557 6.59523 25.0387 6.59579 24.9922 6.77208C22.7343 10.5751 18.2051 18.0781 17.9728 18.4148C17.7406 18.7514 17.5212 18.8667 17.4406 18.8823H12.6506C12.5377 18.8979 12.2732 18.9104 12.1183 18.8356C11.9635 18.7607 11.9571 18.6797 11.9732 18.6485C12.9247 17.1679 14.8472 14.1691 14.9246 14.0195C15.002 13.8699 14.8924 13.7701 14.8279 13.739C13.4409 13.7546 10.5507 13.7951 10.0862 13.8325C9.62171 13.8699 9.18301 14.4404 9.02176 14.7209C7.90892 16.56 5.6542 20.3131 5.5381 20.6124C5.42196 20.9116 5.39296 21.3449 5.44134 21.4073C5.52195 21.6098 5.76067 22.1367 6.07033 22.6229C6.37999 23.1092 6.8122 23.262 6.98961 23.2776H19.9082C20.7598 23.2776 21.1017 22.9347 21.1662 22.7632C23.2628 19.3187 27.4948 12.3456 27.6497 12.0089C27.8045 11.6723 27.7465 11.1517 27.698 10.9335Z" fill="#CF1C31"/>
</svg>
