<svg xmlns="http://www.w3.org/2000/svg" xmlns:xlink="http://www.w3.org/1999/xlink"><symbol id="sprite-arrow-right" viewBox="0 0 1024 1024"><title/><path d="M1024 459.487v111.59L664.582 853.334l-67.811-85.333 264.477-196.923H.001v-111.59h861.247L596.771 249.437l67.811-78.769L1024 459.488z"/></symbol><symbol fill="none" id="sprite-icon-bulb" viewBox="0 0 40 44"><title>icon-bulb</title><path d="M20.21 6.147c-7.215 0-13.063 5.848-13.063 13.062a13.06 13.06 0 006.57 11.338c.514.294.857.826.857 1.418v6.453c0 .849.688 1.537 1.537 1.537h8.196c.849 0 1.537-.688 1.537-1.537v-6.453c0-.592.343-1.124.856-1.418a13.057 13.057 0 006.571-11.338c0-7.214-5.848-13.062-13.062-13.062zm-5.892 27.412H26.1m-11.782 3.073H26.1m-5.884-2.824v-4.61" stroke="#fff" stroke-width="1.523"/><path stroke="#fff" stroke-width="1.523" stroke-linecap="round" d="M20.403 29.147l2.047-2.299m-2.549 1.837l-1.997-1.996m2.312-23.865V.761M8.429 7.24L7.071 5.687m25.197 1.868l1.487-1.429m2.748 13.091l2.061-.077m-36.832.077l2.062-.077m27.993 11.604l1.445 1.471M8.584 30.744l-1.446 1.471"/><rect x="17.392" y="39.955" width="5.635" height="3.073" rx=".512" stroke="#fff" stroke-width="1.523"/></symbol><symbol fill="none" id="sprite-icon-info" viewBox="0 0 19 19"><title>icon-info</title><circle cx="9.5" cy="9.5" r="9.5" fill="#fff"/><path d="M9.68 6.56c-.296 0-.544-.092-.744-.276a.962.962 0 01-.288-.708c0-.28.096-.512.288-.696.2-.192.448-.288.744-.288s.54.096.732.288c.2.184.3.416.3.696 0 .28-.1.516-.3.708a1.015 1.015 0 01-.732.276zm.828.792V14h-1.68V7.352h1.68z" fill="#E31D1C"/></symbol><symbol fill="none" id="sprite-icon-price" viewBox="0 0 26 49"><title>icon-price</title><path d="M16.253 37.898c0 .499-.125.977-.374 1.434-.25.447-.619.821-1.107 1.123-.478.3-1.055.472-1.73.514v1.263H12.2v-1.263c-.946-.083-1.715-.385-2.308-.904-.592-.53-.894-1.2-.904-2.011H10.5c.042.436.203.816.484 1.138.29.322.696.525 1.216.608v-3.898c-.697-.176-1.258-.358-1.684-.545a2.754 2.754 0 01-1.091-.873c-.302-.395-.453-.925-.453-1.59 0-.842.292-1.539.874-2.09.592-.55 1.377-.857 2.354-.92v-1.293h.841v1.294c.884.072 1.596.358 2.136.857.54.489.852 1.128.936 1.918H14.6a1.795 1.795 0 00-.483-.982c-.27-.302-.629-.5-1.076-.593v3.804c.686.177 1.242.358 1.668.546.437.176.8.462 1.092.857.301.395.452.93.452 1.606zm-5.83-5.083c0 .51.15.9.451 1.17.302.27.744.493 1.326.67v-3.601c-.54.052-.972.229-1.294.53-.323.29-.484.701-.484 1.232zm2.618 7c.562-.062.998-.265 1.31-.608.322-.343.483-.753.483-1.231 0-.51-.156-.9-.467-1.17-.312-.28-.754-.504-1.326-.67v3.68z" fill="#fff"/><path d="M.784 18.582c0-.263.088-.519.251-.726L8.849 7.9c.223-.284.564-.45.926-.45h5.542c.36 0 .702.166.925.45l7.814 9.957c.163.207.251.463.251.726v28.072c0 .65-.526 1.176-1.176 1.176H1.96c-.65 0-1.177-.526-1.177-1.176V18.582z" stroke="#fff" stroke-width="1.568"/><circle cx="12.35" cy="18.426" r="4.313" stroke="#fff" stroke-width="1.568"/><path stroke="#fff" stroke-width="1.568" stroke-linecap="round" d="M12.35 13.526V.784"/></symbol><symbol fill="none" id="sprite-icon-shield" viewBox="0 0 34 39"><title>icon-shield</title><path d="M9.786 17.065l6.694 6.36 9.706-9.037" stroke="#fff" stroke-width="2.008" stroke-linecap="round"/><path d="M32.547 7.473A62.845 62.845 0 0117.468 1.11a.796.796 0 00-.805 0c-4.816 2.828-9.749 4.91-15.08 6.363a.79.79 0 00-.583.76v8.057c0 8.297 3.847 13.79 7.074 16.935 3.475 3.387 7.522 5.26 8.992 5.26 1.469 0 5.516-1.873 8.99-5.26 3.228-3.146 7.075-8.638 7.075-16.935V8.233a.789.789 0 00-.584-.76zm-1.001 8.817c0 7.75-3.589 12.874-6.599 15.809-3.416 3.33-7.07 4.81-7.881 4.81-.812 0-4.466-1.48-7.882-4.81-3.01-2.935-6.599-8.06-6.599-15.809V8.832a62.588 62.588 0 0014.48-6.13 64.566 64.566 0 0014.48 6.13v7.458z" fill="#fff" stroke="#fff" stroke-width=".201"/></symbol><symbol fill="none" id="sprite-icon-team" viewBox="0 0 51 32"><title>icon-team</title><circle cx="10.335" cy="9.141" r="4.519" stroke="#fff" stroke-width="1.464"/><path d="M13.593 23.726H1c0-5.477 4.18-9.918 9.335-9.918 2.706 0 5.143 1.223 6.848 3.178" stroke="#fff" stroke-width="1.464"/><circle cx="40.479" cy="9.14" r="4.519" stroke="#fff" stroke-width="1.464"/><path d="M37.022 23.726h12.792c0-5.478-4.18-9.918-9.335-9.918-2.706 0-5.143 1.223-6.848 3.178" stroke="#fff" stroke-width="1.464"/><path d="M17.337 30.825H33.77c5.368-.856 3.857-6.97 2.431-9.919-2.236-5.056-7.314-6.762-7.487-6.806-10.21-2.626-14.446 6.687-14.489 6.806-2.82 7.78 1.037 9.886 3.112 9.919z" stroke="#fff" stroke-width="1.464"/><circle cx="25.407" cy="7.098" r="6.366" stroke="#fff" stroke-width="1.464"/></symbol><symbol class="ldi-47ibm8" preserveAspectRatio="xMidYMid" style="width:525px;webkit-user-select:none;webkit-transform-origin:262.5px 262.5px;webkit-perspective-origin:262.5px 262.5px;webkit-logical-width:525px;webkit-logical-height:525px;user-select:none;transform-origin:262.5px 262.5px;r:0;perspective-origin:262.5px 262.5px;overflow-y:hidden;overflow-x:hidden;inline-size:525px;height:525px;d:none;block-size:525px;background:0 0/auto padding-box border-box" pointer-events="all" overflow="hidden" display="block" id="sprite-ok" viewBox="0 0 100 100"><title>ok</title><svg version="1.1" id="圖層_1" xmlns="http://www.w3.org/2000/svg" x="0" y="0" viewBox="0 0 100 100" xml:space="preserve" style="x:0;webkit-user-select:none;webkit-transform-origin:50px 50px;webkit-perspective-origin:0 0;user-select:none;transform-origin:50px 50px;r:0;perspective-origin:0 0;overflow-y:hidden;overflow-x:hidden" pointer-events="all" overflow="hidden" display="block"><g style="x:0;webkit-user-select:none;webkit-transform-origin:50px 50px;webkit-perspective-origin:0 0;user-select:none;transform-origin:50px 50px;r:0;perspective-origin:0 0"><g style="x:0;webkit-user-select:none;webkit-transform-origin:50px 50px;webkit-transform:matrix(.7,0,0,.7,0,0);webkit-perspective-origin:0 0;user-select:none;transform-origin:50px 50px;r:0;perspective-origin:0 0"><g style="x:0;webkit-user-select:none;webkit-transform-origin:50px 50px;webkit-perspective-origin:0 0;user-select:none;transform-origin:50px 50px;r:0;perspective-origin:0 0"><g style="webkit-user-select:none;webkit-perspective-origin:0 0;user-select:none;perspective-origin:0 0" transform="scale(.7)"><style/><g style="y:0;x:0;webkit-user-select:none;webkit-transform-origin:50px 50px;webkit-perspective-origin:0 0;webkit-animation-duration:2.2s;webkit-animation-delay:.169231s;webkit-animation:2.2s ease .169231s 1 normal none running none;user-select:none;transform-origin:50px 50px;r:0;perspective-origin:0 0;d:none"><circle cx="50" cy="50" r="40" stroke="#3c3" style="webkit-user-select:none;webkit-perspective-origin:0 0;user-select:none;r:40px;perspective-origin:0 0;cy:50px;cx:50px" stroke-width="8" stroke-miterlimit="10" fill="none"/></g><g style="x:0;webkit-user-select:none;webkit-transform-origin:50px 50px;webkit-perspective-origin:0 0;user-select:none;transform-origin:50px 50px;r:0;perspective-origin:0 0"><g style="webkit-user-select:none;webkit-perspective-origin:0 0;user-select:none;perspective-origin:0 0"><g style="y:0;x:0;webkit-user-select:none;webkit-transform-origin:50px 50px;webkit-perspective-origin:0 0;webkit-animation-duration:2.2s;webkit-animation-delay:.338462s;webkit-animation:2.2s ease .338462s 1 normal none running none;user-select:none;transform-origin:50px 50px;r:0;perspective-origin:0 0;d:none" class="ld"><path fill="#3c3" style="webkit-user-select:none;webkit-perspective-origin:0 0;user-select:none;r:0;perspective-origin:0 0" d="M43.7 69.4L25 47.7l3.9-3.9 14.8 12.6 28.6-25.8 2.7 2.7z"/></g></g></g></g></g></g></g><style>@keyframes ldt-bounce-in{0%{-webkit-transform:scale(0);transform:scale(0)}5%{-webkit-transform:scale(.0846);transform:scale(.0846)}6%{-webkit-transform:scale(.191);transform:scale(.191)}7%{-webkit-transform:scale(.3255);transform:scale(.3255)}8%{-webkit-transform:scale(.4804);transform:scale(.4804)}9%{-webkit-transform:scale(.646);transform:scale(.646)}10%{-webkit-transform:scale(.8116);transform:scale(.8116)}11%{-webkit-transform:scale(.9665);transform:scale(.9665)}12%{-webkit-transform:scale(1.1);transform:scale(1.1)}13%{-webkit-transform:scale(1.2069);transform:scale(1.2069)}14%{-webkit-transform:scale(1.2796);transform:scale(1.2796)}19%{-webkit-transform:scale(1.1558);transform:scale(1.1558)}20%{-webkit-transform:scale(1.07);transform:scale(1.07)}21%{-webkit-transform:scale(.9823);transform:scale(.9823)}22%{-webkit-transform:scale(.901);transform:scale(.901)}23%{-webkit-transform:scale(.8328);transform:scale(.8328)}25%{-webkit-transform:scale(.7551);transform:scale(.7551)}29%{-webkit-transform:scale(.8516);transform:scale(.8516)}31%{-webkit-transform:scale(.973);transform:scale(.973)}33%{-webkit-transform:scale(1.0857);transform:scale(1.0857)}35%{-webkit-transform:scale(1.1538);transform:scale(1.1538)}40%{-webkit-transform:scale(1.0771);transform:scale(1.0771)}42%{-webkit-transform:scale(.9954);transform:scale(.9954)}45%{-webkit-transform:scale(.9057);transform:scale(.9057)}52%{-webkit-transform:scale(.9908);transform:scale(.9908)}56%{-webkit-transform:scale(1.0623);transform:scale(1.0623)}64%{-webkit-transform:scale(.9845);transform:scale(.9845)}}@-webkit-keyframes ldt-bounce-in{0%{-webkit-transform:scale(0);transform:scale(0)}5%{-webkit-transform:scale(.0846);transform:scale(.0846)}6%{-webkit-transform:scale(.191);transform:scale(.191)}7%{-webkit-transform:scale(.3255);transform:scale(.3255)}8%{-webkit-transform:scale(.4804);transform:scale(.4804)}9%{-webkit-transform:scale(.646);transform:scale(.646)}10%{-webkit-transform:scale(.8116);transform:scale(.8116)}11%{-webkit-transform:scale(.9665);transform:scale(.9665)}12%{-webkit-transform:scale(1.1);transform:scale(1.1)}13%{-webkit-transform:scale(1.2069);transform:scale(1.2069)}14%{-webkit-transform:scale(1.2796);transform:scale(1.2796)}19%{-webkit-transform:scale(1.1558);transform:scale(1.1558)}20%{-webkit-transform:scale(1.07);transform:scale(1.07)}21%{-webkit-transform:scale(.9823);transform:scale(.9823)}22%{-webkit-transform:scale(.901);transform:scale(.901)}23%{-webkit-transform:scale(.8328);transform:scale(.8328)}25%{-webkit-transform:scale(.7551);transform:scale(.7551)}29%{-webkit-transform:scale(.8516);transform:scale(.8516)}31%{-webkit-transform:scale(.973);transform:scale(.973)}33%{-webkit-transform:scale(1.0857);transform:scale(1.0857)}35%{-webkit-transform:scale(1.1538);transform:scale(1.1538)}40%{-webkit-transform:scale(1.0771);transform:scale(1.0771)}42%{-webkit-transform:scale(.9954);transform:scale(.9954)}45%{-webkit-transform:scale(.9057);transform:scale(.9057)}52%{-webkit-transform:scale(.9908);transform:scale(.9908)}56%{-webkit-transform:scale(1.0623);transform:scale(1.0623)}64%{-webkit-transform:scale(.9845);transform:scale(.9845)}}</style></svg></symbol></svg>