<svg width="15" height="26" viewBox="0 0 15 26" fill="none" xmlns="http://www.w3.org/2000/svg">
<path d="M9.41617 25.7744H5.39027C4.71782 25.7744 4.1708 25.2323 4.1708 24.5659V15.5669H1.82201C1.14955 15.5669 0.602539 15.0246 0.602539 14.3584V10.5023C0.602539 9.83586 1.14955 9.29376 1.82201 9.29376H4.1708V7.36277C4.1708 5.44811 4.77747 3.81915 5.92501 2.65227C7.07773 1.48006 8.68867 0.860596 10.5837 0.860596L13.654 0.865538C14.3253 0.866678 14.8714 1.40878 14.8714 2.07405V5.65435C14.8714 6.32076 14.3245 6.86286 13.6523 6.86286L11.5851 6.86362C10.9546 6.86362 10.7941 6.98888 10.7597 7.02728C10.7032 7.09095 10.6358 7.27096 10.6358 7.76801V9.29357H13.4969C13.7123 9.29357 13.921 9.34622 14.1003 9.44544C14.4872 9.65966 14.7277 10.0647 14.7277 10.5025L14.7262 14.3586C14.7262 15.0246 14.1792 15.5667 13.5067 15.5667H10.6358V24.5659C10.6358 25.2323 10.0886 25.7744 9.41617 25.7744ZM5.6446 24.3139H9.16184V14.913C9.16184 14.4681 9.52722 14.1061 9.97604 14.1061H13.2524L13.2537 10.7543H9.97584C9.52703 10.7543 9.16184 10.3924 9.16184 9.94744V7.76801C9.16184 7.1974 9.22034 6.54847 9.65496 6.06073C10.1801 5.47111 11.0077 5.40307 11.5847 5.40307L13.3976 5.40231V2.32571L10.5825 2.32115C7.5371 2.32115 5.6446 4.2531 5.6446 7.36277V9.94744C5.6446 10.3922 5.27941 10.7543 4.8306 10.7543H2.07634V14.1061H4.8306C5.27941 14.1061 5.6446 14.4681 5.6446 14.913V24.3139ZM13.6511 2.32609H13.6513H13.6511Z" fill="white"/>
</svg>
