<svg width="19" height="19" viewBox="0 0 19 19" fill="none" xmlns="http://www.w3.org/2000/svg">
<circle cx="9.5" cy="9.5" r="9.5" fill="white"/>
<path d="M9.68 6.56C9.384 6.56 9.136 6.468 8.936 6.284C8.744 6.092 8.648 5.856 8.648 5.576C8.648 5.296 8.744 5.064 8.936 4.88C9.136 4.688 9.384 4.592 9.68 4.592C9.976 4.592 10.22 4.688 10.412 4.88C10.612 5.064 10.712 5.296 10.712 5.576C10.712 5.856 10.612 6.092 10.412 6.284C10.22 6.468 9.976 6.56 9.68 6.56ZM10.508 7.352V14H8.828V7.352H10.508Z" fill="#E31D1C"/>
</svg>
