<svg width="51" height="32" viewBox="0 0 51 32" fill="none" xmlns="http://www.w3.org/2000/svg">
<circle cx="10.3351" cy="9.14053" r="4.51874" stroke="white" stroke-width="1.46429"/>
<path d="M13.5929 23.7264H1C1 18.2487 5.17938 13.8081 10.3349 13.8081C13.0408 13.8081 15.4778 15.0314 17.1827 16.9858" stroke="white" stroke-width="1.46429"/>
<circle cx="40.4792" cy="9.14016" r="4.51874" stroke="white" stroke-width="1.46429"/>
<path d="M37.0217 23.7261H49.8137C49.8137 18.2483 45.6343 13.8077 40.4788 13.8077C37.7727 13.8077 35.3356 15.0312 33.6306 16.9858" stroke="white" stroke-width="1.46429"/>
<path d="M17.3368 30.8246H33.7701C39.1377 29.9689 37.6272 23.8558 36.2011 20.9063C33.9646 15.8499 28.8869 14.1441 28.7137 14.0996C18.5037 11.4741 14.2684 20.7871 14.2252 20.9063C11.4052 28.6854 15.2624 30.7922 17.3368 30.8246Z" stroke="white" stroke-width="1.46429"/>
<circle cx="25.4072" cy="7.09841" r="6.36627" stroke="white" stroke-width="1.46429"/>
</svg>
