<svg width="34" height="39" viewBox="0 0 34 39" fill="none" xmlns="http://www.w3.org/2000/svg">
<path d="M9.78564 17.0652L16.4795 23.4244L26.1856 14.3877" stroke="white" stroke-width="2.00816" stroke-linecap="round"/>
<path d="M32.5475 7.47295C27.3637 6.05977 22.1495 3.85932 17.4684 1.10955C17.2198 0.963484 16.9112 0.963484 16.6626 1.10955C11.8466 3.93832 6.91406 6.01972 1.5831 7.47295C1.23871 7.56674 1 7.87819 1 8.2335V16.2904C1 24.5873 4.84702 30.0792 8.07437 33.2253C11.5488 36.6125 15.5961 38.4857 17.0655 38.4857C18.5348 38.4857 22.5821 36.6125 26.0565 33.2253C29.2838 30.0793 33.1306 24.5873 33.1306 16.2904V8.23343C33.1306 7.87819 32.8919 7.56674 32.5475 7.47295ZM31.5456 16.2903C31.5456 24.0395 27.9574 29.1642 24.9471 32.0987C21.5305 35.4296 17.8774 36.9085 17.0655 36.9085C16.2536 36.9085 12.6004 35.4296 9.18361 32.0987C6.17342 29.1641 2.58512 24.0395 2.58512 16.2903V8.83203C7.68304 7.3919 12.4307 5.3821 17.0657 2.70225C21.5849 5.31101 26.5694 7.42075 31.5456 8.83173V16.2903Z" fill="white" stroke="white" stroke-width="0.200816"/>
</svg>
