<svg width="26" height="49" viewBox="0 0 26 49" fill="none" xmlns="http://www.w3.org/2000/svg">
<path d="M16.2529 37.8978C16.2529 38.3967 16.1282 38.8747 15.8788 39.332C15.6293 39.7789 15.2604 40.1531 14.7719 40.4545C14.2938 40.7559 13.717 40.9274 13.0414 40.969V42.2317H12.1996V40.969C11.2538 40.8858 10.4847 40.5844 9.89229 40.0648C9.29988 39.5347 8.99848 38.8644 8.98808 38.0537H10.5003C10.5419 38.4902 10.703 38.8695 10.9836 39.1917C11.2746 39.5139 11.6799 39.7166 12.1996 39.7997V35.9023C11.5032 35.7256 10.942 35.5437 10.5159 35.3567C10.0898 35.1696 9.726 34.8786 9.4246 34.4836C9.12319 34.0887 8.97249 33.5586 8.97249 32.8935C8.97249 32.0516 9.2635 31.3553 9.84552 30.8045C10.4379 30.2536 11.2226 29.947 12.1996 29.8847V28.5907H13.0414V29.8847C13.9248 29.9574 14.6368 30.2432 15.1772 30.7421C15.7177 31.2306 16.0295 31.8698 16.1126 32.6596H14.6004C14.5484 32.2959 14.3873 31.9685 14.1171 31.6775C13.8469 31.3761 13.4883 31.1786 13.0414 31.0851V34.889C13.7274 35.0656 14.2834 35.2475 14.7095 35.4346C15.146 35.6113 15.5098 35.8971 15.8008 36.292C16.1022 36.687 16.2529 37.2222 16.2529 37.8978ZM10.4223 32.8155C10.4223 33.3248 10.573 33.7145 10.8744 33.9848C11.1758 34.255 11.6176 34.4784 12.1996 34.6551V31.0539C11.6591 31.1059 11.2278 31.2825 10.9056 31.5839C10.5834 31.8749 10.4223 32.2855 10.4223 32.8155ZM13.0414 39.8153C13.6026 39.753 14.0392 39.5503 14.351 39.2073C14.6731 38.8644 14.8342 38.4538 14.8342 37.9757C14.8342 37.4665 14.6783 37.0767 14.3665 36.8065C14.0548 36.5259 13.613 36.3024 13.0414 36.1361V39.8153Z" fill="white"/>
<path d="M0.784107 18.5823C0.784107 18.319 0.872459 18.0633 1.03501 17.8562L8.84932 7.89904C9.07229 7.61494 9.41341 7.44902 9.77456 7.44902H12.5456H15.3166C15.6778 7.44902 16.0189 7.61494 16.2419 7.89905L24.0562 17.8562C24.2187 18.0633 24.3071 18.319 24.3071 18.5823V46.654C24.3071 47.3036 23.7805 47.8301 23.1309 47.8301H1.96025C1.31068 47.8301 0.784107 47.3036 0.784107 46.654V18.5823Z" stroke="white" stroke-width="1.56821"/>
<circle cx="12.3496" cy="18.4264" r="4.31254" stroke="white" stroke-width="1.56821"/>
<line x1="12.3497" y1="13.5257" x2="12.3497" y2="0.784106" stroke="white" stroke-width="1.56821" stroke-linecap="round"/>
</svg>
