<svg width="23" height="23" viewBox="0 0 23 23" fill="none" xmlns="http://www.w3.org/2000/svg">
<path d="M11.5474 22.8794C11.4724 22.8794 11.3974 22.8794 11.3219 22.879C9.54655 22.8833 7.90619 22.8382 6.31092 22.7411C4.84836 22.6521 3.51332 22.1467 2.44993 21.2796C1.42385 20.4429 0.723158 19.3116 0.367368 17.9175C0.0577145 16.7037 0.0412987 15.5123 0.0255741 14.3599C0.0141694 13.5331 0.00241917 12.5533 0 11.557C0.00241917 10.5565 0.0141694 9.57669 0.0255741 8.74985C0.0412987 7.59764 0.0577145 6.4062 0.367368 5.19229C0.723158 3.79816 1.42385 2.66685 2.44993 1.83017C3.51332 0.963068 4.84836 0.457634 6.31109 0.368643C7.90636 0.271704 9.54707 0.226431 11.3262 0.230751C13.102 0.226949 14.7419 0.271704 16.3372 0.368643C17.7997 0.457634 19.1348 0.963068 20.1981 1.83017C21.2244 2.66685 21.9249 3.79816 22.2807 5.19229C22.5904 6.40602 22.6068 7.59764 22.6225 8.74985C22.6339 9.57669 22.6458 10.5565 22.6481 11.5528V11.557C22.6458 12.5533 22.6339 13.5331 22.6225 14.3599C22.6068 15.5121 22.5905 16.7036 22.2807 17.9175C21.9249 19.3116 21.2244 20.4429 20.1981 21.2796C19.1348 22.1467 17.7997 22.6521 16.3372 22.7411C14.8095 22.8341 13.2401 22.8794 11.5474 22.8794ZM11.3219 21.1096C13.0683 21.1137 14.6719 21.0696 16.2297 20.9749C17.3356 20.9077 18.2944 20.5488 19.08 19.9083C19.8061 19.3161 20.3061 18.4991 20.5662 17.4799C20.824 16.4696 20.8389 15.3848 20.8532 14.3357C20.8645 13.5144 20.8762 12.5416 20.8786 11.5549C20.8762 10.568 20.8645 9.59535 20.8532 8.77404C20.8389 7.72499 20.824 6.64016 20.5662 5.62964C20.3061 4.61048 19.8061 3.79349 19.08 3.20132C18.2944 2.56093 17.3356 2.20203 16.2297 2.13481C14.6719 2.03994 13.0683 1.99623 11.326 2.00003C9.5799 1.99588 7.97617 2.03994 6.4184 2.13481C5.31249 2.20203 4.35364 2.56093 3.5681 3.20132C2.842 3.79349 2.34193 4.61048 2.08187 5.62964C1.82405 6.64016 1.80919 7.72482 1.79485 8.77404C1.78362 9.59604 1.77187 10.5694 1.76945 11.557C1.77187 12.5402 1.78362 13.5137 1.79485 14.3357C1.80919 15.3848 1.82405 16.4696 2.08187 17.4799C2.34193 18.4991 2.842 19.3161 3.5681 19.9083C4.35364 20.5487 5.31249 20.9076 6.4184 20.9748C7.97617 21.0696 9.58025 21.1139 11.3219 21.1096ZM11.2797 17.0844C8.23087 17.0844 5.75019 14.6039 5.75019 11.5549C5.75019 8.50586 8.23087 6.02535 11.2797 6.02535C14.3287 6.02535 16.8092 8.50586 16.8092 11.5549C16.8092 14.6039 14.3287 17.0844 11.2797 17.0844ZM11.2797 7.7948C9.20649 7.7948 7.51964 9.48165 7.51964 11.5549C7.51964 13.6281 9.20649 15.315 11.2797 15.315C13.3531 15.315 15.0398 13.6281 15.0398 11.5549C15.0398 9.48165 13.3531 7.7948 11.2797 7.7948ZM17.4285 4.2559C16.6957 4.2559 16.1015 4.84998 16.1015 5.58299C16.1015 6.316 16.6957 6.91007 17.4285 6.91007C18.1616 6.91007 18.7556 6.316 18.7556 5.58299C18.7556 4.84998 18.1616 4.2559 17.4285 4.2559Z" fill="white"/>
</svg>
