<svg width="28" height="27" viewBox="0 0 28 27" fill="none" xmlns="http://www.w3.org/2000/svg">
<path d="M15.4265 9.90271V11.1284C15.8716 10.6833 17.456 8.84141 18.9875 8.45759C25.2638 6.88462 26.8515 11.7219 26.9999 13.7991V24.8176C26.9999 25.3699 26.5521 25.8176 25.9999 25.8176H22.7154C22.1413 25.8176 21.6846 25.3357 21.6999 24.7619C21.773 22.021 21.6583 18.1428 21.6583 17.3602C21.6583 14.0759 20.1548 12.9089 18.9875 12.9089C16.1387 12.9089 15.4265 15.5796 15.4265 16.915V24.8176C15.4265 25.3699 14.9788 25.8176 14.4265 25.8176H11.085C10.5327 25.8176 10.085 25.3699 10.085 24.8176V9.90271C10.085 9.35043 10.5327 8.90271 11.085 8.90271H14.4265C14.9788 8.90271 15.4265 9.35043 15.4265 9.90271Z" stroke="white" stroke-width="1.6"/>
<rect x="1.62744" y="8.90259" width="5.34155" height="16.9149" rx="1" stroke="white" stroke-width="1.6"/>
<circle cx="4.29834" cy="3.56103" r="2.76103" stroke="white" stroke-width="1.6"/>
</svg>
