<svg width="19" height="16" viewBox="0 0 19 16" fill="none" xmlns="http://www.w3.org/2000/svg">
<path d="M0.0344326 8.39393L1.40818 11.2237C1.45148 11.344 1.79351 11.3436 1.82423 11.2237C3.31775 8.6377 6.31365 3.53562 6.46726 3.30671C6.62087 3.07779 6.76596 2.99936 6.81931 2.98875H9.9877C10.0624 2.97817 10.2374 2.96967 10.3398 3.02055C10.4422 3.07143 10.4464 3.12653 10.4358 3.14773C9.80635 4.15457 8.53472 6.19372 8.48351 6.29545C8.43233 6.39719 8.50485 6.46504 8.54754 6.48623C9.46499 6.47562 11.3767 6.44807 11.6839 6.42263C11.9912 6.39719 12.2813 6.0093 12.388 5.81851C13.1241 4.5679 14.6155 2.01582 14.6923 1.81233C14.7691 1.60884 14.7883 1.3142 14.7563 1.27181C14.703 1.13403 14.5451 0.775804 14.3403 0.445133C14.1355 0.114463 13.8495 0.0105984 13.7322 0H5.18711C4.62384 0 4.39766 0.233165 4.355 0.349749C2.96816 2.692 0.16885 7.43372 0.0664369 7.66266C-0.0359763 7.89158 0.00242861 8.24556 0.0344326 8.39393Z" fill="#CF1C31"/>
<path d="M18.3212 7.43496L16.9474 4.60519C16.9041 4.48493 16.5621 4.48531 16.5314 4.60519C15.0378 7.19121 12.042 12.2933 11.8883 12.5222C11.7347 12.7511 11.5896 12.8296 11.5363 12.8402H8.36789C8.29322 12.8507 8.11827 12.8592 8.01584 12.8084C7.91344 12.7575 7.90918 12.7024 7.91983 12.6812C8.54924 11.6743 9.82087 9.6352 9.87208 9.53346C9.92329 9.43173 9.85074 9.36387 9.80808 9.34268C8.89063 9.35329 6.97891 9.38084 6.67168 9.40628C6.36442 9.43173 6.07425 9.81962 5.96759 10.0104C5.23149 11.261 3.74008 13.8131 3.66329 14.0166C3.58647 14.2201 3.56729 14.5147 3.59929 14.5571C3.6526 14.6949 3.81051 15.0531 4.01534 15.3838C4.22017 15.7145 4.50605 15.8183 4.6234 15.8289H13.1685C13.7318 15.8289 13.958 15.5958 14.0006 15.4792C15.3875 13.1369 18.1868 8.39519 18.2892 8.16625C18.3916 7.93734 18.3532 7.58336 18.3212 7.43496Z" fill="#CF1C31"/>
</svg>
